<?xml version="1.0" encoding="utf-8" standalone="no"?>
<!DOCTYPE svg PUBLIC "-//W3C//DTD SVG 1.1//EN"
  "http://www.w3.org/Graphics/SVG/1.1/DTD/svg11.dtd">
<svg xmlns:xlink="http://www.w3.org/1999/xlink" width="552.96pt" height="273.6pt" viewBox="0 0 552.96 273.6" xmlns="http://www.w3.org/2000/svg" version="1.1">
 <metadata>
  <rdf:RDF xmlns:dc="http://purl.org/dc/elements/1.1/" xmlns:cc="http://creativecommons.org/ns#" xmlns:rdf="http://www.w3.org/1999/02/22-rdf-syntax-ns#">
   <cc:Work>
    <dc:type rdf:resource="http://purl.org/dc/dcmitype/StillImage"/>
    <dc:date>2025-11-20T22:32:10.332449</dc:date>
    <dc:format>image/svg+xml</dc:format>
    <dc:creator>
     <cc:Agent>
      <dc:title>Matplotlib v3.10.8, https://matplotlib.org/</dc:title>
     </cc:Agent>
    </dc:creator>
   </cc:Work>
  </rdf:RDF>
 </metadata>
 <defs>
  <style type="text/css">*{stroke-linejoin: round; stroke-linecap: butt}</style>
 </defs>
 <g id="figure_1">
  <g id="patch_1">
   <path d="M 0 273.6 
L 552.96 273.6 
L 552.96 0 
L 0 0 
z
" style="fill: #ffffff"/>
  </g>
  <g id="axes_1">
   <g id="patch_2">
    <path d="M 69.12 243.504 
L 497.664 243.504 
L 497.664 32.832 
L 69.12 32.832 
z
" style="fill: #ffffff"/>
   </g>
   <g id="matplotlib.axis_1">
    <g id="xtick_1">
     <g id="line2d_1">
      <defs>
       <path id="m05b9946b36" d="M 0 0 
L 0 3.5 
" style="stroke: #000000; stroke-width: 0.8"/>
      </defs>
      <g>
       <use xlink:href="#m05b9946b36" x="88.599273" y="243.504" style="stroke: #000000; stroke-width: 0.8"/>
      </g>
     </g>
     <g id="text_1">
      <!-- 0 -->
      <g transform="translate(85.418023 258.102437) scale(0.1 -0.1)">
       <defs>
        <path id="DejaVuSans-30" d="M 2034 4250 
Q 1547 4250 1301 3770 
Q 1056 3291 1056 2328 
Q 1056 1369 1301 889 
Q 1547 409 2034 409 
Q 2525 409 2770 889 
Q 3016 1369 3016 2328 
Q 3016 3291 2770 3770 
Q 2525 4250 2034 4250 
z
M 2034 4750 
Q 2819 4750 3233 4129 
Q 3647 3509 3647 2328 
Q 3647 1150 3233 529 
Q 2819 -91 2034 -91 
Q 1250 -91 836 529 
Q 422 1150 422 2328 
Q 422 3509 836 4129 
Q 1250 4750 2034 4750 
z
" transform="scale(0.015625)"/>
       </defs>
       <use xlink:href="#DejaVuSans-30"/>
      </g>
     </g>
    </g>
    <g id="xtick_2">
     <g id="line2d_2">
      <g>
       <use xlink:href="#m05b9946b36" x="181.579095" y="243.504" style="stroke: #000000; stroke-width: 0.8"/>
      </g>
     </g>
     <g id="text_2">
      <!-- 100 -->
      <g transform="translate(172.035345 258.102437) scale(0.1 -0.1)">
       <defs>
        <path id="DejaVuSans-31" d="M 794 531 
L 1825 531 
L 1825 4091 
L 703 3866 
L 703 4441 
L 1819 4666 
L 2450 4666 
L 2450 531 
L 3481 531 
L 3481 0 
L 794 0 
L 794 531 
z
" transform="scale(0.015625)"/>
       </defs>
       <use xlink:href="#DejaVuSans-31"/>
       <use xlink:href="#DejaVuSans-30" transform="translate(63.623047 0)"/>
       <use xlink:href="#DejaVuSans-30" transform="translate(127.246094 0)"/>
      </g>
     </g>
    </g>
    <g id="xtick_3">
     <g id="line2d_3">
      <g>
       <use xlink:href="#m05b9946b36" x="274.558917" y="243.504" style="stroke: #000000; stroke-width: 0.8"/>
      </g>
     </g>
     <g id="text_3">
      <!-- 200 -->
      <g transform="translate(265.015167 258.102437) scale(0.1 -0.1)">
       <defs>
        <path id="DejaVuSans-32" d="M 1228 531 
L 3431 531 
L 3431 0 
L 469 0 
L 469 531 
Q 828 903 1448 1529 
Q 2069 2156 2228 2338 
Q 2531 2678 2651 2914 
Q 2772 3150 2772 3378 
Q 2772 3750 2511 3984 
Q 2250 4219 1831 4219 
Q 1534 4219 1204 4116 
Q 875 4013 500 3803 
L 500 4441 
Q 881 4594 1212 4672 
Q 1544 4750 1819 4750 
Q 2544 4750 2975 4387 
Q 3406 4025 3406 3419 
Q 3406 3131 3298 2873 
Q 3191 2616 2906 2266 
Q 2828 2175 2409 1742 
Q 1991 1309 1228 531 
z
" transform="scale(0.015625)"/>
       </defs>
       <use xlink:href="#DejaVuSans-32"/>
       <use xlink:href="#DejaVuSans-30" transform="translate(63.623047 0)"/>
       <use xlink:href="#DejaVuSans-30" transform="translate(127.246094 0)"/>
      </g>
     </g>
    </g>
    <g id="xtick_4">
     <g id="line2d_4">
      <g>
       <use xlink:href="#m05b9946b36" x="367.538739" y="243.504" style="stroke: #000000; stroke-width: 0.8"/>
      </g>
     </g>
     <g id="text_4">
      <!-- 300 -->
      <g transform="translate(357.994989 258.102437) scale(0.1 -0.1)">
       <defs>
        <path id="DejaVuSans-33" d="M 2597 2516 
Q 3050 2419 3304 2112 
Q 3559 1806 3559 1356 
Q 3559 666 3084 287 
Q 2609 -91 1734 -91 
Q 1441 -91 1130 -33 
Q 819 25 488 141 
L 488 750 
Q 750 597 1062 519 
Q 1375 441 1716 441 
Q 2309 441 2620 675 
Q 2931 909 2931 1356 
Q 2931 1769 2642 2001 
Q 2353 2234 1838 2234 
L 1294 2234 
L 1294 2753 
L 1863 2753 
Q 2328 2753 2575 2939 
Q 2822 3125 2822 3475 
Q 2822 3834 2567 4026 
Q 2313 4219 1838 4219 
Q 1578 4219 1281 4162 
Q 984 4106 628 3988 
L 628 4550 
Q 988 4650 1302 4700 
Q 1616 4750 1894 4750 
Q 2613 4750 3031 4423 
Q 3450 4097 3450 3541 
Q 3450 3153 3228 2886 
Q 3006 2619 2597 2516 
z
" transform="scale(0.015625)"/>
       </defs>
       <use xlink:href="#DejaVuSans-33"/>
       <use xlink:href="#DejaVuSans-30" transform="translate(63.623047 0)"/>
       <use xlink:href="#DejaVuSans-30" transform="translate(127.246094 0)"/>
      </g>
     </g>
    </g>
    <g id="xtick_5">
     <g id="line2d_5">
      <g>
       <use xlink:href="#m05b9946b36" x="460.518561" y="243.504" style="stroke: #000000; stroke-width: 0.8"/>
      </g>
     </g>
     <g id="text_5">
      <!-- 400 -->
      <g transform="translate(450.974811 258.102437) scale(0.1 -0.1)">
       <defs>
        <path id="DejaVuSans-34" d="M 2419 4116 
L 825 1625 
L 2419 1625 
L 2419 4116 
z
M 2253 4666 
L 3047 4666 
L 3047 1625 
L 3713 1625 
L 3713 1100 
L 3047 1100 
L 3047 0 
L 2419 0 
L 2419 1100 
L 313 1100 
L 313 1709 
L 2253 4666 
z
" transform="scale(0.015625)"/>
       </defs>
       <use xlink:href="#DejaVuSans-34"/>
       <use xlink:href="#DejaVuSans-30" transform="translate(63.623047 0)"/>
       <use xlink:href="#DejaVuSans-30" transform="translate(127.246094 0)"/>
      </g>
     </g>
    </g>
    <g id="text_6">
     <!-- Time Steps -->
     <g transform="translate(255.5795 271.780562) scale(0.1 -0.1)">
      <defs>
       <path id="DejaVuSans-54" d="M -19 4666 
L 3928 4666 
L 3928 4134 
L 2272 4134 
L 2272 0 
L 1638 0 
L 1638 4134 
L -19 4134 
L -19 4666 
z
" transform="scale(0.015625)"/>
       <path id="DejaVuSans-69" d="M 603 3500 
L 1178 3500 
L 1178 0 
L 603 0 
L 603 3500 
z
M 603 4863 
L 1178 4863 
L 1178 4134 
L 603 4134 
L 603 4863 
z
" transform="scale(0.015625)"/>
       <path id="DejaVuSans-6d" d="M 3328 2828 
Q 3544 3216 3844 3400 
Q 4144 3584 4550 3584 
Q 5097 3584 5394 3201 
Q 5691 2819 5691 2113 
L 5691 0 
L 5113 0 
L 5113 2094 
Q 5113 2597 4934 2840 
Q 4756 3084 4391 3084 
Q 3944 3084 3684 2787 
Q 3425 2491 3425 1978 
L 3425 0 
L 2847 0 
L 2847 2094 
Q 2847 2600 2669 2842 
Q 2491 3084 2119 3084 
Q 1678 3084 1418 2786 
Q 1159 2488 1159 1978 
L 1159 0 
L 581 0 
L 581 3500 
L 1159 3500 
L 1159 2956 
Q 1356 3278 1631 3431 
Q 1906 3584 2284 3584 
Q 2666 3584 2933 3390 
Q 3200 3197 3328 2828 
z
" transform="scale(0.015625)"/>
       <path id="DejaVuSans-65" d="M 3597 1894 
L 3597 1613 
L 953 1613 
Q 991 1019 1311 708 
Q 1631 397 2203 397 
Q 2534 397 2845 478 
Q 3156 559 3463 722 
L 3463 178 
Q 3153 47 2828 -22 
Q 2503 -91 2169 -91 
Q 1331 -91 842 396 
Q 353 884 353 1716 
Q 353 2575 817 3079 
Q 1281 3584 2069 3584 
Q 2775 3584 3186 3129 
Q 3597 2675 3597 1894 
z
M 3022 2063 
Q 3016 2534 2758 2815 
Q 2500 3097 2075 3097 
Q 1594 3097 1305 2825 
Q 1016 2553 972 2059 
L 3022 2063 
z
" transform="scale(0.015625)"/>
       <path id="DejaVuSans-20" transform="scale(0.015625)"/>
       <path id="DejaVuSans-53" d="M 3425 4513 
L 3425 3897 
Q 3066 4069 2747 4153 
Q 2428 4238 2131 4238 
Q 1616 4238 1336 4038 
Q 1056 3838 1056 3469 
Q 1056 3159 1242 3001 
Q 1428 2844 1947 2747 
L 2328 2669 
Q 3034 2534 3370 2195 
Q 3706 1856 3706 1288 
Q 3706 609 3251 259 
Q 2797 -91 1919 -91 
Q 1588 -91 1214 -16 
Q 841 59 441 206 
L 441 856 
Q 825 641 1194 531 
Q 1563 422 1919 422 
Q 2459 422 2753 634 
Q 3047 847 3047 1241 
Q 3047 1584 2836 1778 
Q 2625 1972 2144 2069 
L 1759 2144 
Q 1053 2284 737 2584 
Q 422 2884 422 3419 
Q 422 4038 858 4394 
Q 1294 4750 2059 4750 
Q 2388 4750 2728 4690 
Q 3069 4631 3425 4513 
z
" transform="scale(0.015625)"/>
       <path id="DejaVuSans-74" d="M 1172 4494 
L 1172 3500 
L 2356 3500 
L 2356 3053 
L 1172 3053 
L 1172 1153 
Q 1172 725 1289 603 
Q 1406 481 1766 481 
L 2356 481 
L 2356 0 
L 1766 0 
Q 1100 0 847 248 
Q 594 497 594 1153 
L 594 3053 
L 172 3053 
L 172 3500 
L 594 3500 
L 594 4494 
L 1172 4494 
z
" transform="scale(0.015625)"/>
       <path id="DejaVuSans-70" d="M 1159 525 
L 1159 -1331 
L 581 -1331 
L 581 3500 
L 1159 3500 
L 1159 2969 
Q 1341 3281 1617 3432 
Q 1894 3584 2278 3584 
Q 2916 3584 3314 3078 
Q 3713 2572 3713 1747 
Q 3713 922 3314 415 
Q 2916 -91 2278 -91 
Q 1894 -91 1617 61 
Q 1341 213 1159 525 
z
M 3116 1747 
Q 3116 2381 2855 2742 
Q 2594 3103 2138 3103 
Q 1681 3103 1420 2742 
Q 1159 2381 1159 1747 
Q 1159 1113 1420 752 
Q 1681 391 2138 391 
Q 2594 391 2855 752 
Q 3116 1113 3116 1747 
z
" transform="scale(0.015625)"/>
       <path id="DejaVuSans-73" d="M 2834 3397 
L 2834 2853 
Q 2591 2978 2328 3040 
Q 2066 3103 1784 3103 
Q 1356 3103 1142 2972 
Q 928 2841 928 2578 
Q 928 2378 1081 2264 
Q 1234 2150 1697 2047 
L 1894 2003 
Q 2506 1872 2764 1633 
Q 3022 1394 3022 966 
Q 3022 478 2636 193 
Q 2250 -91 1575 -91 
Q 1294 -91 989 -36 
Q 684 19 347 128 
L 347 722 
Q 666 556 975 473 
Q 1284 391 1588 391 
Q 1994 391 2212 530 
Q 2431 669 2431 922 
Q 2431 1156 2273 1281 
Q 2116 1406 1581 1522 
L 1381 1569 
Q 847 1681 609 1914 
Q 372 2147 372 2553 
Q 372 3047 722 3315 
Q 1072 3584 1716 3584 
Q 2034 3584 2315 3537 
Q 2597 3491 2834 3397 
z
" transform="scale(0.015625)"/>
      </defs>
      <use xlink:href="#DejaVuSans-54"/>
      <use xlink:href="#DejaVuSans-69" transform="translate(57.958984 0)"/>
      <use xlink:href="#DejaVuSans-6d" transform="translate(85.742188 0)"/>
      <use xlink:href="#DejaVuSans-65" transform="translate(183.154297 0)"/>
      <use xlink:href="#DejaVuSans-20" transform="translate(244.677734 0)"/>
      <use xlink:href="#DejaVuSans-53" transform="translate(276.464844 0)"/>
      <use xlink:href="#DejaVuSans-74" transform="translate(339.941406 0)"/>
      <use xlink:href="#DejaVuSans-65" transform="translate(379.150391 0)"/>
      <use xlink:href="#DejaVuSans-70" transform="translate(440.673828 0)"/>
      <use xlink:href="#DejaVuSans-73" transform="translate(504.150391 0)"/>
     </g>
    </g>
   </g>
   <g id="matplotlib.axis_2">
    <g id="ytick_1">
     <g id="line2d_6">
      <defs>
       <path id="mffbb813ed2" d="M 0 0 
L -3.5 0 
" style="stroke: #000000; stroke-width: 0.8"/>
      </defs>
      <g>
       <use xlink:href="#mffbb813ed2" x="69.12" y="235.406919" style="stroke: #000000; stroke-width: 0.8"/>
      </g>
     </g>
     <g id="text_7">
      <!-- 100 -->
      <g transform="translate(43.0325 239.206138) scale(0.1 -0.1)">
       <use xlink:href="#DejaVuSans-31"/>
       <use xlink:href="#DejaVuSans-30" transform="translate(63.623047 0)"/>
       <use xlink:href="#DejaVuSans-30" transform="translate(127.246094 0)"/>
      </g>
     </g>
    </g>
    <g id="ytick_2">
     <g id="line2d_7">
      <g>
       <use xlink:href="#mffbb813ed2" x="69.12" y="198.433946" style="stroke: #000000; stroke-width: 0.8"/>
      </g>
     </g>
     <g id="text_8">
      <!-- 200 -->
      <g transform="translate(43.0325 202.233165) scale(0.1 -0.1)">
       <use xlink:href="#DejaVuSans-32"/>
       <use xlink:href="#DejaVuSans-30" transform="translate(63.623047 0)"/>
       <use xlink:href="#DejaVuSans-30" transform="translate(127.246094 0)"/>
      </g>
     </g>
    </g>
    <g id="ytick_3">
     <g id="line2d_8">
      <g>
       <use xlink:href="#mffbb813ed2" x="69.12" y="161.460973" style="stroke: #000000; stroke-width: 0.8"/>
      </g>
     </g>
     <g id="text_9">
      <!-- 300 -->
      <g transform="translate(43.0325 165.260192) scale(0.1 -0.1)">
       <use xlink:href="#DejaVuSans-33"/>
       <use xlink:href="#DejaVuSans-30" transform="translate(63.623047 0)"/>
       <use xlink:href="#DejaVuSans-30" transform="translate(127.246094 0)"/>
      </g>
     </g>
    </g>
    <g id="ytick_4">
     <g id="line2d_9">
      <g>
       <use xlink:href="#mffbb813ed2" x="69.12" y="124.488" style="stroke: #000000; stroke-width: 0.8"/>
      </g>
     </g>
     <g id="text_10">
      <!-- 400 -->
      <g transform="translate(43.0325 128.287219) scale(0.1 -0.1)">
       <use xlink:href="#DejaVuSans-34"/>
       <use xlink:href="#DejaVuSans-30" transform="translate(63.623047 0)"/>
       <use xlink:href="#DejaVuSans-30" transform="translate(127.246094 0)"/>
      </g>
     </g>
    </g>
    <g id="ytick_5">
     <g id="line2d_10">
      <g>
       <use xlink:href="#mffbb813ed2" x="69.12" y="87.515027" style="stroke: #000000; stroke-width: 0.8"/>
      </g>
     </g>
     <g id="text_11">
      <!-- 500 -->
      <g transform="translate(43.0325 91.314246) scale(0.1 -0.1)">
       <defs>
        <path id="DejaVuSans-35" d="M 691 4666 
L 3169 4666 
L 3169 4134 
L 1269 4134 
L 1269 2991 
Q 1406 3038 1543 3061 
Q 1681 3084 1819 3084 
Q 2600 3084 3056 2656 
Q 3513 2228 3513 1497 
Q 3513 744 3044 326 
Q 2575 -91 1722 -91 
Q 1428 -91 1123 -41 
Q 819 9 494 109 
L 494 744 
Q 775 591 1075 516 
Q 1375 441 1709 441 
Q 2250 441 2565 725 
Q 2881 1009 2881 1497 
Q 2881 1984 2565 2268 
Q 2250 2553 1709 2553 
Q 1456 2553 1204 2497 
Q 953 2441 691 2322 
L 691 4666 
z
" transform="scale(0.015625)"/>
       </defs>
       <use xlink:href="#DejaVuSans-35"/>
       <use xlink:href="#DejaVuSans-30" transform="translate(63.623047 0)"/>
       <use xlink:href="#DejaVuSans-30" transform="translate(127.246094 0)"/>
      </g>
     </g>
    </g>
    <g id="ytick_6">
     <g id="line2d_11">
      <g>
       <use xlink:href="#mffbb813ed2" x="69.12" y="50.542054" style="stroke: #000000; stroke-width: 0.8"/>
      </g>
     </g>
     <g id="text_12">
      <!-- 600 -->
      <g transform="translate(43.0325 54.341273) scale(0.1 -0.1)">
       <defs>
        <path id="DejaVuSans-36" d="M 2113 2584 
Q 1688 2584 1439 2293 
Q 1191 2003 1191 1497 
Q 1191 994 1439 701 
Q 1688 409 2113 409 
Q 2538 409 2786 701 
Q 3034 994 3034 1497 
Q 3034 2003 2786 2293 
Q 2538 2584 2113 2584 
z
M 3366 4563 
L 3366 3988 
Q 3128 4100 2886 4159 
Q 2644 4219 2406 4219 
Q 1781 4219 1451 3797 
Q 1122 3375 1075 2522 
Q 1259 2794 1537 2939 
Q 1816 3084 2150 3084 
Q 2853 3084 3261 2657 
Q 3669 2231 3669 1497 
Q 3669 778 3244 343 
Q 2819 -91 2113 -91 
Q 1303 -91 875 529 
Q 447 1150 447 2328 
Q 447 3434 972 4092 
Q 1497 4750 2381 4750 
Q 2619 4750 2861 4703 
Q 3103 4656 3366 4563 
z
" transform="scale(0.015625)"/>
       </defs>
       <use xlink:href="#DejaVuSans-36"/>
       <use xlink:href="#DejaVuSans-30" transform="translate(63.623047 0)"/>
       <use xlink:href="#DejaVuSans-30" transform="translate(127.246094 0)"/>
      </g>
     </g>
    </g>
    <g id="text_13">
     <!-- Passengers -->
     <g transform="translate(36.952812 166.387531) rotate(-90) scale(0.1 -0.1)">
      <defs>
       <path id="DejaVuSans-50" d="M 1259 4147 
L 1259 2394 
L 2053 2394 
Q 2494 2394 2734 2622 
Q 2975 2850 2975 3272 
Q 2975 3691 2734 3919 
Q 2494 4147 2053 4147 
L 1259 4147 
z
M 628 4666 
L 2053 4666 
Q 2838 4666 3239 4311 
Q 3641 3956 3641 3272 
Q 3641 2581 3239 2228 
Q 2838 1875 2053 1875 
L 1259 1875 
L 1259 0 
L 628 0 
L 628 4666 
z
" transform="scale(0.015625)"/>
       <path id="DejaVuSans-61" d="M 2194 1759 
Q 1497 1759 1228 1600 
Q 959 1441 959 1056 
Q 959 750 1161 570 
Q 1363 391 1709 391 
Q 2188 391 2477 730 
Q 2766 1069 2766 1631 
L 2766 1759 
L 2194 1759 
z
M 3341 1997 
L 3341 0 
L 2766 0 
L 2766 531 
Q 2569 213 2275 61 
Q 1981 -91 1556 -91 
Q 1019 -91 701 211 
Q 384 513 384 1019 
Q 384 1609 779 1909 
Q 1175 2209 1959 2209 
L 2766 2209 
L 2766 2266 
Q 2766 2663 2505 2880 
Q 2244 3097 1772 3097 
Q 1472 3097 1187 3025 
Q 903 2953 641 2809 
L 641 3341 
Q 956 3463 1253 3523 
Q 1550 3584 1831 3584 
Q 2591 3584 2966 3190 
Q 3341 2797 3341 1997 
z
" transform="scale(0.015625)"/>
       <path id="DejaVuSans-6e" d="M 3513 2113 
L 3513 0 
L 2938 0 
L 2938 2094 
Q 2938 2591 2744 2837 
Q 2550 3084 2163 3084 
Q 1697 3084 1428 2787 
Q 1159 2491 1159 1978 
L 1159 0 
L 581 0 
L 581 3500 
L 1159 3500 
L 1159 2956 
Q 1366 3272 1645 3428 
Q 1925 3584 2291 3584 
Q 2894 3584 3203 3211 
Q 3513 2838 3513 2113 
z
" transform="scale(0.015625)"/>
       <path id="DejaVuSans-67" d="M 2906 1791 
Q 2906 2416 2648 2759 
Q 2391 3103 1925 3103 
Q 1463 3103 1205 2759 
Q 947 2416 947 1791 
Q 947 1169 1205 825 
Q 1463 481 1925 481 
Q 2391 481 2648 825 
Q 2906 1169 2906 1791 
z
M 3481 434 
Q 3481 -459 3084 -895 
Q 2688 -1331 1869 -1331 
Q 1566 -1331 1297 -1286 
Q 1028 -1241 775 -1147 
L 775 -588 
Q 1028 -725 1275 -790 
Q 1522 -856 1778 -856 
Q 2344 -856 2625 -561 
Q 2906 -266 2906 331 
L 2906 616 
Q 2728 306 2450 153 
Q 2172 0 1784 0 
Q 1141 0 747 490 
Q 353 981 353 1791 
Q 353 2603 747 3093 
Q 1141 3584 1784 3584 
Q 2172 3584 2450 3431 
Q 2728 3278 2906 2969 
L 2906 3500 
L 3481 3500 
L 3481 434 
z
" transform="scale(0.015625)"/>
       <path id="DejaVuSans-72" d="M 2631 2963 
Q 2534 3019 2420 3045 
Q 2306 3072 2169 3072 
Q 1681 3072 1420 2755 
Q 1159 2438 1159 1844 
L 1159 0 
L 581 0 
L 581 3500 
L 1159 3500 
L 1159 2956 
Q 1341 3275 1631 3429 
Q 1922 3584 2338 3584 
Q 2397 3584 2469 3576 
Q 2541 3569 2628 3553 
L 2631 2963 
z
" transform="scale(0.015625)"/>
      </defs>
      <use xlink:href="#DejaVuSans-50"/>
      <use xlink:href="#DejaVuSans-61" transform="translate(55.802734 0)"/>
      <use xlink:href="#DejaVuSans-73" transform="translate(117.082031 0)"/>
      <use xlink:href="#DejaVuSans-73" transform="translate(169.181641 0)"/>
      <use xlink:href="#DejaVuSans-65" transform="translate(221.28125 0)"/>
      <use xlink:href="#DejaVuSans-6e" transform="translate(282.804688 0)"/>
      <use xlink:href="#DejaVuSans-67" transform="translate(346.183594 0)"/>
      <use xlink:href="#DejaVuSans-65" transform="translate(409.660156 0)"/>
      <use xlink:href="#DejaVuSans-72" transform="translate(471.183594 0)"/>
      <use xlink:href="#DejaVuSans-73" transform="translate(512.296875 0)"/>
     </g>
    </g>
   </g>
   <g id="line2d_12">
    <path d="M 88.599273 230.970162 
L 89.529071 228.751784 
L 90.458869 223.575568 
L 91.388667 228.751784 
L 92.318466 223.575568 
L 93.248264 224.684757 
L 94.178062 223.575568 
L 95.10786 224.684757 
L 96.037658 227.642595 
L 96.967457 224.684757 
L 97.897255 227.642595 
L 98.827053 222.466378 
L 99.756851 227.642595 
L 101.616448 217.659892 
L 102.546246 222.466378 
L 103.476044 217.659892 
L 106.265439 217.659892 
L 107.195237 222.096649 
L 108.125035 217.659892 
L 109.054834 222.096649 
L 109.984632 228.382054 
L 110.91443 222.096649 
L 112.774026 233.928 
L 113.703825 228.382054 
L 114.633623 233.928 
L 115.563421 228.751784 
L 116.493219 233.928 
L 117.423018 228.751784 
L 118.352816 229.860973 
L 119.282614 228.751784 
L 120.212412 229.860973 
L 121.14221 225.793946 
L 122.072009 229.860973 
L 123.001807 225.793946 
L 123.931605 220.248 
L 124.861403 225.793946 
L 125.791202 220.248 
L 126.721 222.466378 
L 127.650798 220.248 
L 128.580596 222.466378 
L 129.510394 226.163676 
L 130.440193 222.466378 
L 131.369991 226.163676 
L 132.299789 217.290162 
L 133.229587 226.163676 
L 134.159386 217.290162 
L 135.089184 209.525838 
L 136.018982 217.290162 
L 136.94878 209.525838 
L 139.738175 209.525838 
L 140.667973 213.962595 
L 141.597771 209.525838 
L 142.52757 213.962595 
L 143.457368 223.205838 
L 144.387166 213.962595 
L 145.316964 223.205838 
L 146.246762 230.230703 
L 147.176561 223.205838 
L 148.106359 230.230703 
L 149.036157 220.61773 
L 149.965955 230.230703 
L 150.895754 220.61773 
L 151.825552 218.769081 
L 152.75535 220.61773 
L 154.614946 216.920432 
L 155.544745 218.769081 
L 156.474543 216.920432 
L 157.404341 206.568 
L 158.334139 216.920432 
L 159.263938 206.568 
L 160.193736 212.113946 
L 161.123534 206.568 
L 162.053332 212.113946 
L 162.98313 208.786378 
L 163.912929 212.113946 
L 164.842727 208.786378 
L 165.772525 206.568 
L 166.702323 208.786378 
L 167.632122 206.568 
L 168.56192 198.803676 
L 169.491718 206.568 
L 170.421516 198.803676 
L 173.210911 198.803676 
L 174.140709 204.349622 
L 175.070507 198.803676 
L 176.000305 204.349622 
L 176.930104 212.483676 
L 177.859902 204.349622 
L 178.7897 212.483676 
L 179.719498 218.399351 
L 180.649297 212.483676 
L 181.579095 218.399351 
L 182.508893 211.004757 
L 183.438691 218.399351 
L 184.368489 211.004757 
L 185.298288 209.156108 
L 186.228086 211.004757 
L 187.157884 209.156108 
L 188.087682 205.828541 
L 189.017481 209.156108 
L 189.947279 205.828541 
L 190.877077 201.022054 
L 191.806875 205.828541 
L 192.736673 201.022054 
L 193.666472 205.458811 
L 194.59627 201.022054 
L 195.526068 205.458811 
L 196.455866 204.719351 
L 197.385665 205.458811 
L 198.315463 204.719351 
L 199.245261 191.778811 
L 200.175059 204.719351 
L 201.104857 191.778811 
L 202.034656 187.342054 
L 202.964454 191.778811 
L 204.82405 182.905297 
L 205.753849 187.342054 
L 206.683647 182.905297 
L 207.613445 195.106378 
L 208.543243 182.905297 
L 209.473041 195.106378 
L 210.40284 201.761514 
L 211.332638 195.106378 
L 213.192234 208.786378 
L 214.122033 201.761514 
L 215.051831 208.786378 
L 215.981629 200.652324 
L 216.911427 208.786378 
L 217.841225 200.652324 
L 218.771024 199.912865 
L 219.700822 200.652324 
L 220.63062 199.912865 
L 223.420015 199.912865 
L 224.349813 185.123676 
L 225.279611 199.912865 
L 226.209409 185.123676 
L 227.139208 185.493405 
L 228.069006 185.123676 
L 228.998804 185.493405 
L 229.928602 187.711784 
L 230.858401 185.493405 
L 231.788199 187.711784 
L 232.717997 182.535568 
L 233.647795 187.711784 
L 234.577593 182.535568 
L 235.507392 174.771243 
L 236.43719 182.535568 
L 237.366988 174.771243 
L 238.296786 171.813405 
L 239.226585 174.771243 
L 240.156383 171.813405 
L 241.086181 184.753946 
L 242.015979 171.813405 
L 242.945777 184.753946 
L 243.875576 194.366919 
L 244.805374 184.753946 
L 245.735172 194.366919 
L 246.66497 205.828541 
L 247.594768 194.366919 
L 248.524567 205.828541 
L 249.454365 198.064216 
L 250.384163 205.828541 
L 251.313961 198.064216 
L 252.24376 196.955027 
L 253.173558 198.064216 
L 254.103356 196.955027 
L 255.033154 202.870703 
L 255.962952 196.955027 
L 256.892751 202.870703 
L 257.822549 185.493405 
L 258.752347 202.870703 
L 259.682145 185.493405 
L 260.611944 188.451243 
L 261.541742 185.493405 
L 262.47154 188.451243 
L 263.401338 185.863135 
L 264.331136 188.451243 
L 265.260935 185.863135 
L 266.190733 174.771243 
L 267.120531 185.863135 
L 268.050329 174.771243 
L 268.980128 160.721514 
L 269.909926 174.771243 
L 270.839724 160.721514 
L 271.769522 164.049081 
L 272.69932 160.721514 
L 273.629119 164.049081 
L 274.558917 176.619892 
L 275.488715 164.049081 
L 277.348312 187.711784 
L 278.27811 176.619892 
L 279.207908 187.711784 
L 280.137706 197.324757 
L 281.067504 187.711784 
L 281.997303 197.324757 
L 282.927101 187.711784 
L 283.856899 197.324757 
L 284.786697 187.711784 
L 285.716496 182.905297 
L 286.646294 187.711784 
L 287.576092 182.905297 
L 288.50589 186.232865 
L 289.435688 182.905297 
L 290.365487 186.232865 
L 291.295285 173.662054 
L 292.225083 186.232865 
L 293.154881 173.662054 
L 294.08468 172.922595 
L 295.014478 173.662054 
L 295.944276 172.922595 
L 296.874074 172.552865 
L 297.803872 172.922595 
L 298.733671 172.552865 
L 299.663469 155.915027 
L 300.593267 172.552865 
L 302.452864 137.798282 
L 303.382662 155.915027 
L 304.31246 137.798282 
L 305.242258 144.083676 
L 306.172056 137.798282 
L 307.101855 144.083676 
L 308.031653 157.024216 
L 308.961451 144.083676 
L 310.821048 171.073946 
L 311.750846 157.024216 
L 313.610442 184.753946 
L 314.54024 171.073946 
L 315.470039 184.753946 
L 316.399837 169.595027 
L 317.329635 184.753946 
L 318.259433 169.595027 
L 319.189232 167.376649 
L 320.11903 169.595027 
L 321.048828 167.376649 
L 321.978626 169.964757 
L 322.908424 167.376649 
L 323.838223 169.964757 
L 324.768021 155.175568 
L 325.697819 169.964757 
L 326.627617 155.175568 
L 327.557415 156.654486 
L 328.487214 155.175568 
L 329.417012 156.654486 
L 330.34681 154.805838 
L 331.276608 156.654486 
L 332.206407 154.805838 
L 333.136205 134.100984 
L 334.066003 154.805838 
L 334.995801 134.100984 
L 335.925599 119.681525 
L 336.855398 134.100984 
L 337.785196 119.681525 
L 338.714994 122.639363 
L 339.644792 119.681525 
L 340.574591 122.639363 
L 341.504389 141.125838 
L 342.434187 122.639363 
L 344.293783 159.242595 
L 345.223582 141.125838 
L 346.15338 159.242595 
L 347.083178 172.183135 
L 348.012976 159.242595 
L 348.942775 172.183135 
L 349.872573 159.242595 
L 350.802371 172.183135 
L 351.732169 159.242595 
L 352.661967 155.915027 
L 353.591766 159.242595 
L 354.521564 155.915027 
L 355.451362 161.091243 
L 356.38116 155.915027 
L 357.310959 161.091243 
L 358.240757 140.756108 
L 359.170555 161.091243 
L 360.100353 140.756108 
L 361.030151 143.713946 
L 361.95995 140.756108 
L 362.889748 143.713946 
L 363.819546 141.125838 
L 364.749344 143.713946 
L 365.679143 141.125838 
L 366.608941 116.353957 
L 367.538739 141.125838 
L 368.468537 116.353957 
L 369.398335 100.455568 
L 370.328134 116.353957 
L 371.257932 100.455568 
L 372.18773 99.716119 
L 373.117528 100.455568 
L 374.047327 99.716119 
L 374.977125 123.009092 
L 375.906923 99.716119 
L 377.766519 144.083676 
L 378.696318 123.009092 
L 379.626116 144.083676 
L 380.555914 159.612324 
L 381.485712 144.083676 
L 382.415511 159.612324 
L 383.345309 148.150703 
L 384.275107 159.612324 
L 385.204905 148.150703 
L 386.134703 146.671784 
L 387.064502 148.150703 
L 387.9943 146.671784 
L 388.924098 154.805838 
L 389.853896 146.671784 
L 390.783695 154.805838 
L 391.713493 138.53773 
L 392.643291 154.805838 
L 393.573089 138.53773 
L 394.502887 143.713946 
L 395.432686 138.53773 
L 396.362484 143.713946 
L 397.292282 138.168 
L 398.22208 143.713946 
L 399.151878 138.168 
L 400.081677 111.547471 
L 401.011475 138.168 
L 401.941273 111.547471 
L 402.871071 90.842595 
L 403.80087 111.547471 
L 404.730668 90.842595 
L 405.660466 85.666378 
L 406.590264 90.842595 
L 407.520062 85.666378 
L 408.449861 123.009092 
L 409.379659 85.666378 
L 410.309457 123.009092 
L 411.239255 139.646919 
L 412.169054 123.009092 
L 414.02865 157.763676 
L 414.958448 139.646919 
L 415.888246 157.763676 
L 416.818045 147.780973 
L 417.747843 157.763676 
L 418.677641 147.780973 
L 419.607439 139.277189 
L 420.537238 147.780973 
L 421.467036 139.277189 
L 422.396834 145.932324 
L 423.326632 139.277189 
L 424.25643 145.932324 
L 425.186229 122.269622 
L 426.116027 145.932324 
L 427.045825 122.269622 
L 427.975623 125.96693 
L 428.905422 122.269622 
L 429.83522 125.96693 
L 430.765018 117.093405 
L 431.694816 125.96693 
L 432.624614 117.093405 
L 433.554413 97.867471 
L 434.484211 117.093405 
L 435.414009 97.867471 
L 436.343807 69.768 
L 437.273606 97.867471 
L 438.203404 69.768 
L 439.133202 65.700973 
L 440.063 69.768 
L 440.992798 65.700973 
L 441.922597 101.195038 
L 442.852395 65.700973 
L 443.782193 101.195038 
L 444.711991 121.899892 
L 445.64179 101.195038 
L 446.571588 121.899892 
L 447.501386 138.53773 
L 448.431184 121.899892 
L 449.360982 138.53773 
L 450.290781 122.639363 
L 451.220579 138.53773 
L 452.150377 122.639363 
L 453.080175 118.202606 
L 454.009974 122.639363 
L 454.939772 118.202606 
L 455.86957 127.815579 
L 456.799368 118.202606 
L 457.729166 127.815579 
L 458.658965 117.463146 
L 459.588763 127.815579 
L 460.518561 117.463146 
L 461.448359 101.934486 
L 462.378158 117.463146 
L 463.307956 101.934486 
L 464.237754 97.867471 
L 465.167552 101.934486 
L 466.09735 97.867471 
L 467.027149 74.574486 
L 467.956947 97.867471 
L 468.886745 74.574486 
L 469.816543 42.408 
L 470.746342 74.574486 
L 471.67614 42.408 
L 472.605938 48.323676 
L 473.535736 42.408 
L 474.465534 48.323676 
L 475.395333 84.5572 
L 476.325131 48.323676 
L 477.254929 84.5572 
L 478.184727 101.934486 
L 478.184727 101.934486 
" clip-path="url(#p0582f504ff)" style="fill: none; stroke: #0000ff; stroke-width: 1.5; stroke-linecap: square"/>
   </g>
   <g id="line2d_13">
    <path d="M 88.599273 227.037172 
L 89.529071 224.913688 
L 91.388667 224.273206 
L 92.318466 221.96099 
L 93.248264 218.643933 
L 94.178062 218.483316 
L 95.10786 221.974823 
L 96.037658 227.287214 
L 96.967457 229.574832 
L 97.897255 229.967174 
L 100.68665 222.125523 
L 101.616448 222.24231 
L 102.546246 221.415794 
L 103.476044 217.141675 
L 104.405842 211.599418 
L 105.335641 210.474455 
L 106.265439 214.924673 
L 107.195237 221.730891 
L 108.125035 224.086772 
L 109.054834 222.52456 
L 110.91443 213.66127 
L 112.774026 208.736642 
L 113.703825 208.709071 
L 114.633623 204.372724 
L 115.563421 200.987099 
L 116.493219 200.217406 
L 117.423018 204.721473 
L 118.352816 211.201898 
L 119.282614 213.523902 
L 120.212412 212.348497 
L 121.14221 208.23553 
L 122.072009 204.952971 
L 123.001807 203.64004 
L 123.931605 203.341457 
L 124.861403 200.387405 
L 125.791202 194.275637 
L 126.721 187.044887 
L 127.650798 188.01171 
L 128.580596 192.881625 
L 129.510394 201.437994 
L 130.440193 203.416914 
L 131.369991 202.704986 
L 132.299789 199.778617 
L 134.159386 189.808106 
L 135.089184 185.770291 
L 136.018982 184.973569 
L 136.94878 181.403095 
L 137.878578 176.054296 
L 138.808377 176.686181 
L 139.738175 183.275303 
L 140.667973 194.549403 
L 141.597771 199.139646 
L 142.52757 199.896188 
L 143.457368 198.866072 
L 144.387166 194.922913 
L 145.316964 191.867915 
L 146.246762 186.308085 
L 147.176561 182.791957 
L 148.106359 173.533278 
L 149.036157 166.109325 
L 149.965955 166.70947 
L 150.895754 175.750021 
L 151.825552 186.837625 
L 152.75535 190.686304 
L 153.685148 189.003897 
L 154.614946 185.257072 
L 155.544745 180.721034 
L 156.474543 177.259517 
L 157.404341 172.718864 
L 158.334139 166.899626 
L 159.263938 155.099327 
L 160.193736 145.421813 
L 161.123534 145.828485 
L 162.053332 156.965036 
L 162.98313 170.554589 
L 163.912929 174.961772 
L 164.842727 173.559952 
L 166.702323 163.923758 
L 167.632122 160.182873 
L 168.56192 155.173514 
L 169.491718 148.214408 
L 170.421516 135.745474 
L 171.351314 124.939973 
L 172.281113 127.28047 
L 173.210911 140.52998 
L 174.140709 157.109281 
L 175.070507 163.31866 
L 176.000305 162.07476 
L 176.930104 158.335037 
L 177.859902 152.320622 
L 178.7897 148.031461 
L 179.719498 141.444432 
L 180.649297 133.370145 
L 182.508893 105.036739 
L 183.438691 107.241938 
L 184.368489 121.807821 
L 185.298288 141.784385 
L 186.228086 150.314921 
L 187.157884 151.051357 
L 188.087682 149.416955 
L 189.017481 146.357996 
L 189.947279 145.185418 
L 190.877077 139.733304 
L 191.806875 130.77283 
L 193.666472 95.626639 
L 194.59627 99.404882 
L 195.526068 115.735443 
L 196.455866 139.659917 
L 197.385665 148.085113 
L 198.315463 147.875922 
L 199.245261 143.839303 
L 200.175059 135.493992 
L 201.104857 130.83315 
L 202.034656 121.338798 
L 202.964454 113.212067 
L 204.82405 77.668987 
L 205.753849 78.84723 
L 206.683647 96.060999 
L 207.613445 120.088072 
L 208.543243 127.327341 
L 209.473041 125.951404 
L 210.40284 122.359166 
L 211.332638 120.745965 
L 212.262436 115.286584 
L 213.192234 105.291097 
L 214.122033 91.204347 
L 215.051831 71.705177 
L 215.981629 55.703737 
L 216.911427 59.116403 
L 217.841225 78.414314 
L 217.841225 78.414314 
" clip-path="url(#p0582f504ff)" style="fill: none; stroke: #ff0000; stroke-width: 1.5; stroke-linecap: square"/>
   </g>
   <g id="patch_3">
    <path d="M 69.12 243.504 
L 69.12 32.832 
" style="fill: none; stroke: #000000; stroke-width: 0.8; stroke-linejoin: miter; stroke-linecap: square"/>
   </g>
   <g id="patch_4">
    <path d="M 497.664 243.504 
L 497.664 32.832 
" style="fill: none; stroke: #000000; stroke-width: 0.8; stroke-linejoin: miter; stroke-linecap: square"/>
   </g>
   <g id="patch_5">
    <path d="M 69.12 243.504 
L 497.664 243.504 
" style="fill: none; stroke: #000000; stroke-width: 0.8; stroke-linejoin: miter; stroke-linecap: square"/>
   </g>
   <g id="patch_6">
    <path d="M 69.12 32.832 
L 497.664 32.832 
" style="fill: none; stroke: #000000; stroke-width: 0.8; stroke-linejoin: miter; stroke-linecap: square"/>
   </g>
   <g id="text_14">
    <!-- Airline Passengers Prdictoin -->
    <g transform="translate(200.506688 26.832) scale(0.12 -0.12)">
     <defs>
      <path id="DejaVuSans-41" d="M 2188 4044 
L 1331 1722 
L 3047 1722 
L 2188 4044 
z
M 1831 4666 
L 2547 4666 
L 4325 0 
L 3669 0 
L 3244 1197 
L 1141 1197 
L 716 0 
L 50 0 
L 1831 4666 
z
" transform="scale(0.015625)"/>
      <path id="DejaVuSans-6c" d="M 603 4863 
L 1178 4863 
L 1178 0 
L 603 0 
L 603 4863 
z
" transform="scale(0.015625)"/>
      <path id="DejaVuSans-64" d="M 2906 2969 
L 2906 4863 
L 3481 4863 
L 3481 0 
L 2906 0 
L 2906 525 
Q 2725 213 2448 61 
Q 2172 -91 1784 -91 
Q 1150 -91 751 415 
Q 353 922 353 1747 
Q 353 2572 751 3078 
Q 1150 3584 1784 3584 
Q 2172 3584 2448 3432 
Q 2725 3281 2906 2969 
z
M 947 1747 
Q 947 1113 1208 752 
Q 1469 391 1925 391 
Q 2381 391 2643 752 
Q 2906 1113 2906 1747 
Q 2906 2381 2643 2742 
Q 2381 3103 1925 3103 
Q 1469 3103 1208 2742 
Q 947 2381 947 1747 
z
" transform="scale(0.015625)"/>
      <path id="DejaVuSans-63" d="M 3122 3366 
L 3122 2828 
Q 2878 2963 2633 3030 
Q 2388 3097 2138 3097 
Q 1578 3097 1268 2742 
Q 959 2388 959 1747 
Q 959 1106 1268 751 
Q 1578 397 2138 397 
Q 2388 397 2633 464 
Q 2878 531 3122 666 
L 3122 134 
Q 2881 22 2623 -34 
Q 2366 -91 2075 -91 
Q 1284 -91 818 406 
Q 353 903 353 1747 
Q 353 2603 823 3093 
Q 1294 3584 2113 3584 
Q 2378 3584 2631 3529 
Q 2884 3475 3122 3366 
z
" transform="scale(0.015625)"/>
      <path id="DejaVuSans-6f" d="M 1959 3097 
Q 1497 3097 1228 2736 
Q 959 2375 959 1747 
Q 959 1119 1226 758 
Q 1494 397 1959 397 
Q 2419 397 2687 759 
Q 2956 1122 2956 1747 
Q 2956 2369 2687 2733 
Q 2419 3097 1959 3097 
z
M 1959 3584 
Q 2709 3584 3137 3096 
Q 3566 2609 3566 1747 
Q 3566 888 3137 398 
Q 2709 -91 1959 -91 
Q 1206 -91 779 398 
Q 353 888 353 1747 
Q 353 2609 779 3096 
Q 1206 3584 1959 3584 
z
" transform="scale(0.015625)"/>
     </defs>
     <use xlink:href="#DejaVuSans-41"/>
     <use xlink:href="#DejaVuSans-69" transform="translate(68.408203 0)"/>
     <use xlink:href="#DejaVuSans-72" transform="translate(96.191406 0)"/>
     <use xlink:href="#DejaVuSans-6c" transform="translate(137.304688 0)"/>
     <use xlink:href="#DejaVuSans-69" transform="translate(165.087891 0)"/>
     <use xlink:href="#DejaVuSans-6e" transform="translate(192.871094 0)"/>
     <use xlink:href="#DejaVuSans-65" transform="translate(256.25 0)"/>
     <use xlink:href="#DejaVuSans-20" transform="translate(317.773438 0)"/>
     <use xlink:href="#DejaVuSans-50" transform="translate(349.560547 0)"/>
     <use xlink:href="#DejaVuSans-61" transform="translate(405.363281 0)"/>
     <use xlink:href="#DejaVuSans-73" transform="translate(466.642578 0)"/>
     <use xlink:href="#DejaVuSans-73" transform="translate(518.742188 0)"/>
     <use xlink:href="#DejaVuSans-65" transform="translate(570.841797 0)"/>
     <use xlink:href="#DejaVuSans-6e" transform="translate(632.365234 0)"/>
     <use xlink:href="#DejaVuSans-67" transform="translate(695.744141 0)"/>
     <use xlink:href="#DejaVuSans-65" transform="translate(759.220703 0)"/>
     <use xlink:href="#DejaVuSans-72" transform="translate(820.744141 0)"/>
     <use xlink:href="#DejaVuSans-73" transform="translate(861.857422 0)"/>
     <use xlink:href="#DejaVuSans-20" transform="translate(913.957031 0)"/>
     <use xlink:href="#DejaVuSans-50" transform="translate(945.744141 0)"/>
     <use xlink:href="#DejaVuSans-72" transform="translate(1004.296875 0)"/>
     <use xlink:href="#DejaVuSans-64" transform="translate(1043.660156 0)"/>
     <use xlink:href="#DejaVuSans-69" transform="translate(1107.136719 0)"/>
     <use xlink:href="#DejaVuSans-63" transform="translate(1134.919922 0)"/>
     <use xlink:href="#DejaVuSans-74" transform="translate(1189.900391 0)"/>
     <use xlink:href="#DejaVuSans-6f" transform="translate(1229.109375 0)"/>
     <use xlink:href="#DejaVuSans-69" transform="translate(1290.291016 0)"/>
     <use xlink:href="#DejaVuSans-6e" transform="translate(1318.074219 0)"/>
    </g>
   </g>
   <g id="legend_1">
    <g id="patch_7">
     <path d="M 76.12 70.18825 
L 182.115313 70.18825 
Q 184.115313 70.18825 184.115313 68.18825 
L 184.115313 39.832 
Q 184.115313 37.832 182.115313 37.832 
L 76.12 37.832 
Q 74.12 37.832 74.12 39.832 
L 74.12 68.18825 
Q 74.12 70.18825 76.12 70.18825 
z
" style="fill: #ffffff; opacity: 0.8; stroke: #cccccc; stroke-linejoin: miter"/>
    </g>
    <g id="line2d_14">
     <path d="M 78.12 45.930437 
L 88.12 45.930437 
L 98.12 45.930437 
" style="fill: none; stroke: #0000ff; stroke-width: 1.5; stroke-linecap: square"/>
    </g>
    <g id="text_15">
     <!-- Actual Data -->
     <g transform="translate(106.12 49.430437) scale(0.1 -0.1)">
      <defs>
       <path id="DejaVuSans-75" d="M 544 1381 
L 544 3500 
L 1119 3500 
L 1119 1403 
Q 1119 906 1312 657 
Q 1506 409 1894 409 
Q 2359 409 2629 706 
Q 2900 1003 2900 1516 
L 2900 3500 
L 3475 3500 
L 3475 0 
L 2900 0 
L 2900 538 
Q 2691 219 2414 64 
Q 2138 -91 1772 -91 
Q 1169 -91 856 284 
Q 544 659 544 1381 
z
M 1991 3584 
L 1991 3584 
z
" transform="scale(0.015625)"/>
       <path id="DejaVuSans-44" d="M 1259 4147 
L 1259 519 
L 2022 519 
Q 2988 519 3436 956 
Q 3884 1394 3884 2338 
Q 3884 3275 3436 3711 
Q 2988 4147 2022 4147 
L 1259 4147 
z
M 628 4666 
L 1925 4666 
Q 3281 4666 3915 4102 
Q 4550 3538 4550 2338 
Q 4550 1131 3912 565 
Q 3275 0 1925 0 
L 628 0 
L 628 4666 
z
" transform="scale(0.015625)"/>
      </defs>
      <use xlink:href="#DejaVuSans-41"/>
      <use xlink:href="#DejaVuSans-63" transform="translate(66.658203 0)"/>
      <use xlink:href="#DejaVuSans-74" transform="translate(121.638672 0)"/>
      <use xlink:href="#DejaVuSans-75" transform="translate(160.847656 0)"/>
      <use xlink:href="#DejaVuSans-61" transform="translate(224.226562 0)"/>
      <use xlink:href="#DejaVuSans-6c" transform="translate(285.505859 0)"/>
      <use xlink:href="#DejaVuSans-20" transform="translate(313.289062 0)"/>
      <use xlink:href="#DejaVuSans-44" transform="translate(345.076172 0)"/>
      <use xlink:href="#DejaVuSans-61" transform="translate(422.078125 0)"/>
      <use xlink:href="#DejaVuSans-74" transform="translate(483.357422 0)"/>
      <use xlink:href="#DejaVuSans-61" transform="translate(522.566406 0)"/>
     </g>
    </g>
    <g id="line2d_15">
     <path d="M 78.12 60.608562 
L 88.12 60.608562 
L 98.12 60.608562 
" style="fill: none; stroke: #ff0000; stroke-width: 1.5; stroke-linecap: square"/>
    </g>
    <g id="text_16">
     <!-- Predicted Data -->
     <g transform="translate(106.12 64.108562) scale(0.1 -0.1)">
      <use xlink:href="#DejaVuSans-50"/>
      <use xlink:href="#DejaVuSans-72" transform="translate(58.552734 0)"/>
      <use xlink:href="#DejaVuSans-65" transform="translate(97.416016 0)"/>
      <use xlink:href="#DejaVuSans-64" transform="translate(158.939453 0)"/>
      <use xlink:href="#DejaVuSans-69" transform="translate(222.416016 0)"/>
      <use xlink:href="#DejaVuSans-63" transform="translate(250.199219 0)"/>
      <use xlink:href="#DejaVuSans-74" transform="translate(305.179688 0)"/>
      <use xlink:href="#DejaVuSans-65" transform="translate(344.388672 0)"/>
      <use xlink:href="#DejaVuSans-64" transform="translate(405.912109 0)"/>
      <use xlink:href="#DejaVuSans-20" transform="translate(469.388672 0)"/>
      <use xlink:href="#DejaVuSans-44" transform="translate(501.175781 0)"/>
      <use xlink:href="#DejaVuSans-61" transform="translate(578.177734 0)"/>
      <use xlink:href="#DejaVuSans-74" transform="translate(639.457031 0)"/>
      <use xlink:href="#DejaVuSans-61" transform="translate(678.666016 0)"/>
     </g>
    </g>
   </g>
  </g>
 </g>
 <defs>
  <clipPath id="p0582f504ff">
   <rect x="69.12" y="32.832" width="428.544" height="210.672"/>
  </clipPath>
 </defs>
</svg>
